<svg width="121" height="97" viewBox="0 0 121 97" fill="none" xmlns="http://www.w3.org/2000/svg">
<path d="M42.0576 0C41.7702 0 41.4965 0.2882 41.4965 0.658744C30.7266 24.6754 19.9568 48.6921 9.18694 72.6951L1.15402 90.8792C0.661375 91.6203 -0.0639137 92.9789 0.00450976 94.6532C0.0318791 95.2845 0.100303 96.0668 0.661375 96.5608C0.989807 96.849 1.4414 96.9863 2.01616 96.9863C2.68671 96.9863 3.24778 96.6432 3.69938 95.9433C4.15097 95.2434 4.94468 93.473 6.08051 90.6047C8.24269 85.6367 10.4049 80.6824 12.5671 75.7143L20.7779 56.8578C23.5559 50.6821 26.3202 44.5064 29.0982 38.3306C29.4676 37.5621 30.2203 37.0818 31.0277 37.1092C32.0404 37.1367 32.6014 37.9327 32.6699 38.0287C34.8047 43.4085 45.5471 70.3483 47.6956 75.7281C47.7504 75.8516 49.8578 81.1353 49.8989 81.2588L55.578 95.5041H82.4958C69.208 63.7883 55.8928 32.0589 42.5913 0.343096C42.4818 0.137238 42.2628 0 42.0576 0Z" fill="#A37CF0"/>
<path d="M120.594 1.4608C120.183 1.00792 119.308 1.2275 119.102 1.28239C106.061 1.09026 96.509 0.966747 95.8111 1.00792C95.6742 1.00792 95.3047 1.03537 95.0721 1.29612C94.8531 1.55687 94.8531 1.84507 94.8531 1.91369C94.8258 19.1371 94.7984 36.3605 94.7847 53.5839C69.8375 54.1877 44.8903 54.8053 19.9432 55.4092C18.9715 56.5757 17.9999 57.7422 17.0283 58.9087C42.9197 58.4559 68.8112 58.003 94.7026 57.5638C94.7026 70.3407 94.7163 83.1039 94.73 95.8807C94.73 95.9631 94.7573 96.1964 94.9489 96.4022C95.2363 96.7179 95.6605 96.6767 95.7016 96.6767C103.762 96.6767 111.808 96.6767 119.869 96.6767C119.937 96.6767 120.361 96.7179 120.69 96.4022C120.977 96.1278 121.087 95.6886 120.95 95.2769C120.635 32.9982 120.58 5.28975 120.717 4.35653C120.772 3.97227 120.786 3.62917 120.799 2.9567C120.827 1.8039 120.731 1.59804 120.608 1.44708L120.594 1.4608Z" fill="#A37CF0"/>
</svg>
