<svg width="56" height="57" viewBox="0 0 56 57" fill="none" xmlns="http://www.w3.org/2000/svg">
<path d="M55.5431 21.774C55.4848 19.7991 55.4557 17.4692 55.1863 15.1614C55.3028 13.4306 54.8586 11.6998 54.0211 10.1614C53.7226 9.4069 53.373 8.68946 52.9361 8.03116C51.6836 4.56218 47.6347 3.04587 44.1248 2.19527C37.3452 0.553232 30.5947 0.442288 23.7131 0.0502702C14.9673 -0.445299 -0.135686 2.60949 0.490573 14.296C0.192007 16.7517 0.0754942 19.2591 0.162879 21.737C-0.135686 28.8895 0.0245196 36.1455 0.257546 43.2166C0.27211 43.6456 0.512419 43.9192 0.810984 44.0302C1.75037 49.4445 5.91572 55.1176 11.5084 55.2508C15.4844 56.2715 20.0648 56.2049 24.0554 56.375C28.7814 56.5748 33.5221 56.4342 38.2117 55.7833C44.4161 54.9253 53.1837 52.5584 54.0503 45.2136C54.946 41.9444 54.9751 38.2091 55.2008 34.9102C55.4994 30.5463 55.6742 26.1379 55.5431 21.7592V21.774ZM49.2514 14.5549C49.4261 15.5904 49.5572 16.6408 49.6737 17.6467C49.5426 17.1363 49.4043 16.6333 49.2514 16.1304C49.2441 15.5017 49.215 14.873 49.1785 14.2443C49.2077 14.3478 49.2295 14.4514 49.2586 14.5549H49.2514ZM49.6446 34.0152C49.5863 36.0271 49.5208 38.0464 49.448 40.0582C49.4116 38.505 49.3023 36.9739 49.3023 35.6203C49.3023 35.5094 49.3023 35.3984 49.3023 35.2875C49.4261 34.8658 49.5427 34.4443 49.6519 34.0226L49.6446 34.0152ZM6.03223 20.4352C5.98126 20.5461 5.93028 20.6423 5.87931 20.7532C5.71182 21.1452 5.56618 21.5373 5.42782 21.9367C5.65357 16.3449 7.33573 11.2117 12.0618 8.95573C10.5544 10.1984 9.29461 11.8034 8.40619 13.8818C7.52506 15.0579 6.95706 16.4114 6.92793 17.8834C6.58567 18.7044 6.27982 19.5476 6.03223 20.4352ZM6.80413 47.1589C6.18516 46.2344 5.68998 45.1619 5.34044 43.9118C4.91808 42.3808 4.68505 40.7979 4.55397 39.1928C5.06372 40.7683 5.69726 42.2772 6.48372 43.6604C6.55654 44.829 6.66577 45.9977 6.80413 47.1663V47.1589ZM10.4816 35.3984C10.1248 35.0508 9.80435 34.6736 9.50578 34.2667C9.43296 34.0522 9.37471 33.8377 9.30917 33.6232C9.38927 32.6913 9.47666 31.7593 9.58589 30.8347C9.61502 32.4694 9.92815 34.0005 10.4743 35.4058L10.4816 35.3984ZM9.54948 47.5583V47.551C10.6491 48.5421 11.938 49.3631 13.4308 49.977C13.642 50.1176 13.8605 50.2581 14.0789 50.3986C14.5741 50.7019 15.0547 50.7537 15.4625 50.6427C15.579 50.6723 15.6956 50.7093 15.8193 50.7315C21.31 51.9667 27.4197 51.9667 33.0123 51.9075C36.7408 51.8705 41.3212 51.8705 45.2171 50.7167C41.3066 52.8691 36.0999 52.625 31.8618 52.6916C26.8153 52.7655 21.696 52.4697 16.6714 52.0481C13.358 51.767 10.3942 50.8572 8.24599 48.8823C8.92322 48.9267 9.58589 48.5051 9.54948 47.5731V47.5583ZM18.3826 42.8024C19.0963 43.039 19.8391 43.224 20.6037 43.3497C21.1498 43.7639 21.7251 44.1485 22.3587 44.4888C22.9631 44.8068 23.582 45.0657 24.2156 45.2802C23.0723 45.3024 21.929 45.1988 20.8003 44.9548C19.9264 44.326 19.1181 43.6012 18.3826 42.8024ZM19.4313 47.9134C18.856 47.8394 18.2807 47.7581 17.72 47.6619C17.8365 47.6101 17.953 47.5435 18.0549 47.4696C18.5137 47.6397 18.9725 47.7876 19.4385 47.9134H19.4313ZM18.9943 13.8818C19.2419 13.4824 19.4968 13.083 19.7444 12.6836C19.8245 12.5578 19.8682 12.4321 19.9046 12.3064C20.3852 12.2694 20.8513 12.2546 21.2809 12.2546C21.3974 12.2546 21.5139 12.2546 21.6377 12.262C20.7275 12.7428 19.8463 13.2827 19.0016 13.8892L18.9943 13.8818ZM22.5116 5.18348C20.4872 5.39798 18.5064 5.78261 16.6641 6.4335C16.6422 6.12285 16.5111 5.84918 16.3145 5.62728C17.6399 5.19088 18.9943 4.84324 20.3779 4.58436C21.9144 4.53998 23.451 4.56956 24.9875 4.59915C24.15 4.76927 23.3272 4.96159 22.5116 5.18348ZM44.2486 46.3675C43.8845 46.6708 43.4767 46.8853 43.0398 47.0554C44.001 45.8941 44.8748 44.6737 45.6613 43.4015C45.5084 44.5553 45.137 45.6278 44.2559 46.3675H44.2486ZM44.7875 10.2723C45.0715 10.7901 45.2899 11.3522 45.472 11.9439C45.0423 12.1436 44.7001 12.5209 44.5399 13.0756C43.6369 11.9661 42.6028 10.975 41.4523 10.1244C41.2921 9.08146 40.9716 8.09032 40.5347 7.16575C42.3043 7.62434 43.8481 8.54152 44.7947 10.2723H44.7875ZM42.9742 25.5758C42.3771 24.3406 41.5688 23.2089 40.6003 22.2251C40.7823 21.1822 40.877 20.1393 40.877 19.1186C42.2169 20.9234 43.0033 23.1275 42.9742 25.5758ZM36.2529 6.77374C36.5077 7.0696 36.748 7.38025 36.9592 7.71309C36.0417 7.37285 35.0804 7.09919 34.0828 6.89209C34.7892 6.83291 35.5174 6.78853 36.2529 6.77374ZM44.5035 35.1691C43.6442 37.4842 42.4499 39.644 40.928 41.471C38.2846 44.6589 34.4178 46.9001 30.3689 47.4252C36.231 45.4207 41.496 40.8645 44.5035 35.1691ZM1.61929 13.8448C2.60966 9.82851 5.24577 6.26338 8.87224 4.30329C13.4381 1.83284 18.6958 1.97336 23.7058 1.65531C24.7545 1.58874 25.8104 1.58135 26.8808 1.59615C26.6769 1.72189 26.5022 1.892 26.3711 2.09911C25.3079 2.1213 24.2447 2.17307 23.1888 2.26183C18.5428 2.29142 13.926 2.7574 9.92815 4.85063C6.77501 6.50746 4.02238 9.59182 3.17766 13.0534C2.81356 12.9646 2.38391 13.1644 2.36935 13.6747C2.31109 15.4647 2.28196 17.2473 2.26012 19.0298C2.1873 17.4766 2.09991 15.9381 1.96883 14.3996C1.94699 14.1185 1.80135 13.941 1.62658 13.8374L1.61929 13.8448ZM33.1288 54.3854C29.5024 54.6516 25.8541 54.6517 22.2276 54.5111C18.521 54.3706 14.6032 53.5422 10.8894 53.7567C8.91594 52.6398 6.9789 51.7522 5.45695 49.8439C3.48351 47.3734 2.44945 44.3778 2.11448 41.2343C2.19458 39.2372 2.2674 37.2254 2.32566 35.2135C2.36935 37.8763 2.51499 40.5464 3.08299 43.1278C4.84526 51.1753 11.2025 53.5422 18.6157 53.9786C23.8515 54.2892 29.1455 54.0007 34.3886 53.8528C36.799 53.7862 39.3405 53.7493 41.7508 53.2685C38.8963 53.9194 35.896 54.1783 33.1288 54.3854ZM51.2612 48.0095C49.4261 50.2951 46.8993 51.7152 44.0957 52.6324C44.7292 52.4031 45.3482 52.1368 45.9453 51.8114C47.5037 50.9608 48.7052 49.8217 49.6519 48.4977C50.3874 47.8542 50.9481 47.1072 51.3559 46.2787C51.2976 46.8557 51.2685 47.4326 51.2685 48.0095H51.2612ZM49.7101 8.29002C50.6277 8.94092 51.4069 9.68798 51.9967 10.5608C51.9967 10.5756 51.9967 10.583 51.9967 10.5904C52.0258 10.7827 52.1278 10.9158 52.2516 10.9972C52.2807 11.0489 52.3026 11.1007 52.3317 11.1525C52.3827 11.3152 52.4336 11.4779 52.4846 11.6481C52.3754 11.7368 52.3026 11.8626 52.3171 12.0401C52.4336 13.1718 52.5356 14.3034 52.6302 15.4425C52.1788 12.8241 51.2831 10.3463 49.6956 8.29743L49.7101 8.29002ZM52.7468 35.5759C52.7322 35.783 52.7031 35.9975 52.6885 36.2046C52.6885 35.82 52.6885 35.428 52.6739 35.0508C52.8414 30.7978 53.1036 26.5078 53.089 22.2473C53.1546 23.9042 53.191 25.561 53.1983 27.2104C53.1254 29.9989 52.9798 32.7874 52.754 35.5759H52.7468Z" fill="black"/>
<path d="M27.5727 13.4973C19.7226 13.4973 13.3508 19.5255 13.3508 26.9517C13.3508 31.1899 15.4189 34.9621 18.6521 37.4326V42.5658L23.4947 39.8512C24.7836 40.2137 26.1527 40.4134 27.5727 40.4134C35.4227 40.4134 41.7946 34.3852 41.7946 26.9591C41.7946 19.5329 35.43 13.5047 27.5727 13.5047V13.4973ZM28.9854 31.6189L25.3662 27.6691L18.3026 31.6189L26.0726 23.1868L29.7791 27.1366L36.7554 23.1868L28.9854 31.6189Z" fill="white"/>
</svg>
